<?xml version="1.0" encoding="UTF-8"?>
<svg width="281px" height="109px" viewBox="0 0 281 109" version="1.1" xmlns="http://www.w3.org/2000/svg" xmlns:xlink="http://www.w3.org/1999/xlink">
    <!-- Generator: Sketch 45.1 (43504) - http://www.bohemiancoding.com/sketch -->
    <title>Group</title>
    <desc>Created with Sketch.</desc>
    <defs>
        <polygon id="path-1" points="0.8089936 34.94 230.997 34.94 230.997 17.673 230.997 0.406 0.8089936 0.406"></polygon>
        <polygon id="path-3" points="79.802 0.69 0 0.69 0 108.94 159.604 108.94 159.604 0.69"></polygon>
    </defs>
    <g id="Page-1" stroke="none" stroke-width="1" fill="none" fill-rule="evenodd">
        <g id="Group">
            <g id="APM-Logo&amp;Name-[Silver]">
                <g id="Group-40" transform="translate(50.000000, 74.000000)">
                    <mask id="mask-2" fill="white">
                        <use xlink:href="#path-1"></use>
                    </mask>
                    <g id="Clip-38"></g>
                    <polygon id="Fill-37" fill="#A8A9A5" mask="url(#mask-2)" points="229.787 1.888 230.997 1.888 230.997 0.406 229.787 0.406"></polygon>
                    <path d="M62.87,3.843 C62.87,3.843 62.818,4.173 62.723,4.8 C62.673,5.116 62.628,5.502 62.501,5.951 C62.379,6.392 62.292,6.931 62.089,7.481 C61.891,8.027 61.718,8.665 61.418,9.286 C61.279,9.603 61.135,9.937 60.984,10.277 C60.81,10.606 60.63,10.94 60.446,11.289 C60.353,11.465 60.258,11.643 60.16,11.82 C60.054,11.992 59.947,12.163 59.836,12.338 C59.614,12.685 59.385,13.044 59.152,13.41 C58.64,14.095 58.123,14.848 57.512,15.533 C56.931,16.264 56.261,16.931 55.583,17.649 C54.876,18.308 54.159,19.025 53.37,19.662 C52.6,20.344 51.765,20.951 50.927,21.599 C50.063,22.189 49.192,22.83 48.27,23.386 C46.447,24.558 44.505,25.618 42.504,26.59 C40.505,27.581 38.429,28.43 36.344,29.228 C34.251,30.002 32.14,30.701 30.048,31.295 C29.004,31.603 27.956,31.851 26.927,32.128 C25.892,32.366 24.873,32.618 23.865,32.825 C19.83,33.673 16.032,34.2 12.768,34.512 C11.954,34.583 11.17,34.656 10.425,34.717 C9.678,34.761 8.974,34.803 8.309,34.844 C6.981,34.928 5.821,34.939 4.864,34.975 C2.954,34.986 1.861,34.994 1.861,34.994 C1.284,34.998 0.812,34.41 0.809,33.686 C0.807,32.959 1.274,32.366 1.851,32.366 L1.904,32.366 C1.904,32.366 2.979,32.395 4.858,32.445 C5.799,32.436 6.943,32.465 8.253,32.43 C8.907,32.412 9.606,32.391 10.34,32.369 C11.076,32.333 11.847,32.289 12.655,32.249 C15.877,32.045 19.632,31.648 23.631,30.945 C24.63,30.773 25.641,30.557 26.67,30.358 C27.689,30.116 28.729,29.91 29.764,29.632 C31.844,29.116 33.94,28.5 36.02,27.807 C38.095,27.086 40.161,26.316 42.149,25.402 C44.145,24.514 46.081,23.529 47.898,22.435 C48.817,21.916 49.686,21.316 50.548,20.759 C51.387,20.148 52.22,19.581 52.99,18.941 C53.779,18.338 54.495,17.66 55.205,17.031 C55.882,16.351 56.555,15.719 57.136,15.025 C57.752,14.369 58.269,13.652 58.783,13 C59.019,12.651 59.25,12.309 59.473,11.976 C59.585,11.806 59.693,11.646 59.802,11.483 C59.899,11.308 59.994,11.14 60.089,10.974 C60.276,10.641 60.46,10.317 60.637,10.004 C60.79,9.675 60.936,9.357 61.08,9.051 C61.387,8.457 61.563,7.841 61.771,7.316 C61.98,6.786 62.069,6.276 62.201,5.854 C62.33,5.431 62.385,5.039 62.441,4.729 C62.551,4.107 62.607,3.777 62.607,3.777 C62.625,3.685 62.695,3.629 62.769,3.646 C62.839,3.667 62.883,3.754 62.87,3.843" id="Fill-39" fill="#A8A9A5" mask="url(#mask-2)"></path>
                </g>
                <path d="M86.058,81.2 C86.058,81.2 85.967,81.37 85.76,81.681 C85.557,81.992 85.256,82.431 84.837,82.946 C84.624,83.199 84.403,83.5 84.135,83.792 C83.867,84.082 83.578,84.394 83.267,84.727 C82.955,85.058 82.598,85.372 82.233,85.723 C81.875,86.083 81.476,86.418 81.053,86.757 C80.627,87.091 80.204,87.486 79.73,87.811 C79.257,88.149 78.771,88.491 78.27,88.848 C77.774,89.218 77.228,89.497 76.687,89.839 C76.139,90.156 75.593,90.531 75.007,90.805 C73.842,91.382 72.648,92.037 71.387,92.511 C70.76,92.768 70.13,93.029 69.496,93.289 C68.85,93.501 68.206,93.714 67.56,93.928 C66.912,94.134 66.265,94.36 65.616,94.549 C64.964,94.712 64.312,94.872 63.666,95.03 C63.021,95.189 62.378,95.347 61.745,95.503 C61.11,95.631 60.477,95.722 59.856,95.834 C59.235,95.941 58.625,96.043 58.028,96.148 C57.429,96.255 56.843,96.349 56.27,96.392 C55.125,96.506 54.043,96.615 53.044,96.713 C52.045,96.839 51.125,96.847 50.312,96.876 C49.498,96.904 48.79,96.927 48.204,96.949 C47.035,96.985 46.365,97.008 46.365,97.008 C45.787,97.028 45.307,96.446 45.291,95.714 C45.276,94.982 45.734,94.373 46.312,94.353 C46.325,94.353 46.338,94.353 46.352,94.353 L46.408,94.354 C46.408,94.354 47.065,94.367 48.211,94.392 C48.785,94.406 49.482,94.421 50.282,94.435 C51.083,94.454 51.985,94.495 52.968,94.421 C53.952,94.38 55.015,94.333 56.145,94.28 C56.708,94.271 57.284,94.209 57.872,94.134 C58.462,94.068 59.064,93.999 59.675,93.928 C60.289,93.853 60.912,93.795 61.542,93.703 C62.166,93.586 62.798,93.465 63.437,93.345 C64.077,93.223 64.719,93.099 65.366,92.977 C66.009,92.828 66.645,92.639 67.288,92.472 C67.93,92.298 68.571,92.123 69.212,91.949 C69.839,91.729 70.467,91.505 71.086,91.289 C72.345,90.897 73.528,90.312 74.693,89.807 C75.281,89.572 75.825,89.233 76.373,88.952 C76.913,88.647 77.464,88.401 77.96,88.067 C78.462,87.747 78.953,87.43 79.429,87.13 C79.904,86.834 80.329,86.47 80.758,86.165 C81.186,85.854 81.588,85.546 81.952,85.213 C82.321,84.886 82.68,84.6 82.998,84.295 C83.315,83.984 83.609,83.689 83.882,83.421 C84.154,83.147 84.38,82.87 84.599,82.63 C85.025,82.146 85.338,81.728 85.54,81.449 C85.743,81.165 85.846,80.998 85.846,80.998 C85.89,80.923 85.974,80.909 86.033,80.965 C86.089,81.015 86.101,81.119 86.061,81.195 L86.058,81.2" id="Fill-41" fill="#A8A9A5"></path>
                <polyline id="Fill-42" fill="#A8A9A5" points="107.422 19.649 99.729 52.361 92.034 19.649 85.977 19.649 85.977 75.947 92.034 75.947 92.034 46.841 98.357 70.438 101.098 70.438 107.422 46.841 107.422 75.947 113.48 75.947 113.48 19.649 107.422 19.649"></polyline>
                <path d="M55.808,46.797 L65.484,46.797 L65.484,26.434 L55.808,26.434 L55.808,46.797 Z M69.718,48.298 C69.837,47.943 69.998,47.619 70.21,47.316 C70.236,47.28 70.281,47.205 70.332,47.121 C70.333,47.113 70.333,47.104 70.335,47.095 C70.613,44.296 70.403,41.539 70.295,38.736 C70.18,35.762 70.412,32.866 70.066,29.899 C69.847,28.015 69.6,26.14 69.335,24.269 C69.255,24.183 69.184,24.091 69.124,23.982 C68.847,23.478 68.627,22.854 68.279,22.419 C68.126,22.3 67.969,22.188 67.805,22.087 C67.766,22.062 67.725,22.037 67.685,22.013 C67.56,21.96 67.435,21.911 67.308,21.869 C67.206,21.836 67.113,21.784 67.025,21.725 C66.61,21.583 66.194,21.453 65.771,21.351 C64.175,20.966 62.557,20.757 60.948,20.463 C60.466,20.375 60.179,20.054 60.054,19.649 L49.752,19.649 L49.752,75.947 L55.808,75.947 L55.808,53.583 L61.383,53.583 C61.708,53.348 62.079,53.191 62.457,53.105 C62.803,53.025 63.131,52.909 63.456,52.784 C63.724,52.473 64.027,52.372 64.316,52.418 C64.524,52.322 64.733,52.223 64.947,52.126 C64.982,52.103 65.016,52.08 65.053,52.059 C65.764,51.668 66.456,51.159 67.186,50.829 C67.252,50.797 67.318,50.773 67.385,50.745 C67.415,50.714 67.449,50.684 67.481,50.656 C67.69,50.33 67.891,50.053 68.148,49.787 C68.554,49.373 68.994,48.986 69.441,48.623 C69.521,48.508 69.612,48.4 69.718,48.298 L69.718,48.298 Z" id="Fill-43" fill="#A8A9A5"></path>
                <path d="M71.53,39.068 C71.386,39.088 71.225,38.986 71.213,38.754 C71.21,38.681 71.204,38.603 71.199,38.53 C71.161,38.539 71.122,38.547 71.077,38.532 C70.262,38.243 69.172,38.353 68.331,38.457 C67.654,38.536 67.041,38.894 66.359,38.891 C66.263,38.891 66.175,38.864 66.093,38.82 C66.022,38.943 65.888,38.981 65.778,38.938 C65.789,39.028 65.798,39.116 65.804,39.18 C65.826,39.446 65.627,39.545 65.465,39.479 C65.466,39.596 65.468,39.705 65.468,39.825 C65.468,45.626 64.625,46.676 60.28,46.787 L55.842,46.787 C55.865,47.043 55.89,47.297 55.899,47.552 C55.921,48.153 55.878,48.732 55.811,49.315 C56.006,49.65 56.135,50.008 56.216,50.398 C56.335,50.636 56.467,50.865 56.583,51.106 C56.959,51.866 57.03,52.761 56.861,53.581 L60.28,53.581 C68.546,53.581 71.54,51.538 71.54,39.825 C71.54,39.563 71.534,39.32 71.53,39.068" id="Fill-44" fill="#A8A9A5"></path>
                <polyline id="Fill-45" fill="#A8A9A5" points="71.539 39.627 65.475 39.55 65.482 33.918 71.54 33.918 71.539 39.627"></polyline>
                <g id="Group-49">
                    <mask id="mask-4" fill="white">
                        <use xlink:href="#path-3"></use>
                    </mask>
                    <g id="Clip-47"></g>
                    <path d="M60.384,19.649 L55.306,19.649 C55.307,19.661 56.212,20.83 55.541,21.002 C53.812,21.444 55.168,23.556 54.839,25.435 C54.834,25.788 54.819,26.137 54.803,26.483 L60.311,26.483 C64.852,26.427 65.484,28.095 65.484,33.997 C65.502,33.988 65.521,33.983 65.539,33.97 C65.645,33.918 65.725,33.954 65.783,34.03 C66.247,34.006 66.717,34.06 67.189,34.127 C67.809,34.05 68.422,33.963 68.587,33.975 C69.124,34.01 69.661,34.027 70.197,34.087 C70.318,34.1 70.397,34.115 70.46,34.127 C70.532,34.011 70.657,33.944 70.791,34.036 C70.839,34.067 70.877,34.104 70.904,34.144 C70.969,34.112 71.044,34.112 71.112,34.169 C71.225,34.088 71.352,34.065 71.484,34.162 C71.504,34.177 71.519,34.201 71.537,34.22 C71.537,34.144 71.54,34.073 71.54,33.998 C71.54,22.306 68.837,19.649 60.384,19.649" id="Fill-46" fill="#A8A9A5" mask="url(#mask-4)"></path>
                    <path d="M25.89,48.324 L26.329,50.933 C26.483,50.866 26.637,50.799 26.794,50.735 C26.641,50.837 26.496,50.937 26.346,51.037 L26.796,53.709 C28.477,52.552 30.307,51.432 32.291,50.37 L31.563,46.038 C29.65,46.775 27.752,47.532 25.89,48.324 L25.89,48.324 Z M30.532,75.947 L36.589,75.947 L32.291,50.37 C30.307,51.432 28.477,52.552 26.796,53.709 L30.532,75.947 Z M21.31,53.223 L21.829,50.142 C19.503,51.24 17.272,52.401 15.182,53.651 L14.628,56.936 C16.697,55.614 18.943,54.383 21.31,53.223 L21.31,53.223 Z M20.982,55.183 L20.337,59.019 C22.17,57.199 24.325,55.413 26.796,53.709 L26.347,51.037 C24.375,52.369 22.585,53.756 20.982,55.183 L20.982,55.183 Z M11.982,75.773 C11.982,75.83 11.99,75.888 11.991,75.947 L17.493,75.947 L20.337,59.019 C14.654,64.677 11.982,70.707 11.982,75.773 L11.982,75.773 Z M24.012,37.143 L25.89,48.324 C27.752,47.532 29.65,46.775 31.563,46.038 L27.041,19.118 L27.043,19.098 L20.98,19.098 L20.984,19.118 L15.182,53.651 C17.272,52.401 19.502,51.24 21.829,50.142 L24.012,37.143 Z M13.421,64.125 L11.437,75.947 L11.991,75.947 C11.99,75.888 11.982,75.83 11.982,75.773 C11.982,70.707 14.654,64.677 20.337,59.019 L20.981,55.183 C17.735,58.067 15.228,61.101 13.421,64.125 L13.421,64.125 Z M21.31,53.223 C22.933,52.426 24.613,51.668 26.329,50.936 L25.89,48.324 C24.513,48.912 23.156,49.516 21.829,50.142 L21.31,53.223 Z M46.322,96.564 C46.294,96.516 46.272,96.463 46.265,96.395 C46.238,96.1 46.256,95.785 46.273,95.486 C46.289,95.21 46.365,94.989 46.433,94.724 C46.456,94.642 46.497,94.594 46.544,94.554 C46.545,94.489 46.555,94.421 46.588,94.366 C27.724,93.752 12.179,85.589 11.991,75.947 L11.437,75.947 L13.421,64.125 C11.009,68.16 9.848,72.175 9.848,75.773 C9.848,87.247 25.691,96.322 46.354,97.004 C46.329,96.957 46.309,96.903 46.308,96.83 C46.307,96.734 46.312,96.647 46.322,96.564 Z M51.893,108.765 C51.896,108.627 51.973,108.518 51.989,108.387 C52.011,108.211 52.007,108.031 52.036,107.854 C52.116,107.351 52.227,106.772 52.511,106.378 C23.209,105.861 2.134,93.079 2.134,75.605 C2.134,67.588 7.228,61.672 14.628,56.936 L15.182,53.651 C6.319,58.945 0,65.777 0,75.605 C0,85.101 5.521,93.686 15.546,99.773 C24.861,105.428 37.702,108.662 51.912,109 C51.896,108.923 51.89,108.846 51.893,108.765 Z M159.604,0.69 L159.604,4.753 L137.794,17.291 L134.85,14.91 L132.444,17.291 L132.444,12.834 C102.434,23.963 55.993,41.144 42.54,45.881 C38.75,47.217 35.341,48.73 32.291,50.368 L31.563,46.038 C34.942,44.742 38.369,43.52 41.721,42.329 C59.375,36.034 139.924,7.811 155.792,2.245 L159.604,0.69 L159.604,0.69 Z" id="Fill-48" fill="#A8A9A5" mask="url(#mask-4)"></path>
                </g>
            </g>
            <g id="APM-Logo&amp;Name-[Burgandy]" transform="translate(121.000000, 19.000000)" fill="#802829">
                <path d="M6.356,2.037 L6.16,2.037 L3.631,9.898 L8.884,9.898 L6.356,2.037 Z M9.315,11.175 L3.2,11.175 L2.278,13.966 L0.849,13.966 L5.298,0.759 L7.218,0.759 L11.667,13.966 L10.236,13.966 L9.315,11.175 L9.315,11.175 Z" id="Fill-1"></path>
                <polygon id="Fill-2" points="13.688 13.966 14.898 13.966 14.898 2.312 13.688 2.312"></polygon>
                <path d="M18.911,8.155 L22.837,8.155 C24.099,8.155 24.635,7.414 24.635,5.805 C24.635,3.616 24.326,3.439 22.458,3.439 L18.911,3.439 L18.911,8.155 Z M17.7,2.312 L22.821,2.312 C25.017,2.312 25.845,3.02 25.845,5.612 C25.845,7.624 25.397,8.428 24.255,8.702 L24.255,8.734 C25.242,8.991 25.639,9.683 25.639,10.777 L25.639,13.966 L24.427,13.966 L24.427,11.31 C24.427,9.765 23.961,9.282 22.059,9.282 L18.911,9.282 L18.911,13.966 L17.7,13.966 L17.7,2.312 L17.7,2.312 Z" id="Fill-3"></path>
                <path d="M36.519,10.972 C36.519,13.499 35.67,14.094 32.643,14.094 C29.34,14.094 28.216,13.515 28.216,10.102 L28.216,6.175 C28.216,2.763 29.34,2.184 32.643,2.184 C35.412,2.184 36.519,2.522 36.519,5.225 L36.519,6.062 L35.412,6.062 L35.412,5.306 C35.412,3.487 34.772,3.311 32.643,3.311 C29.79,3.311 29.428,3.665 29.428,6.239 L29.428,10.039 C29.428,12.613 29.79,12.967 32.643,12.967 C35.168,12.967 35.412,12.452 35.412,10.859 L35.412,10.088 L36.519,10.088 L36.519,10.972" id="Fill-4"></path>
                <path d="M39.958,8.155 L43.885,8.155 C45.149,8.155 45.685,7.414 45.685,5.805 C45.685,3.616 45.373,3.439 43.504,3.439 L39.958,3.439 L39.958,8.155 Z M38.749,2.312 L43.869,2.312 C46.064,2.312 46.893,3.02 46.893,5.612 C46.893,7.624 46.445,8.428 45.303,8.702 L45.303,8.734 C46.29,8.991 46.687,9.683 46.687,10.777 L46.687,13.966 L45.477,13.966 L45.477,11.31 C45.477,9.765 45.01,9.282 43.107,9.282 L39.958,9.282 L39.958,13.966 L38.749,13.966 L38.749,2.312 L38.749,2.312 Z" id="Fill-5"></path>
                <path d="M53.434,3.439 L53.26,3.439 L51.029,10.375 L55.664,10.375 L53.434,3.439 Z M56.044,11.503 L50.648,11.503 L49.834,13.966 L48.573,13.966 L52.499,2.312 L54.193,2.312 L58.119,13.966 L56.857,13.966 L56.044,11.503 L56.044,11.503 Z" id="Fill-6"></path>
                <polyline id="Fill-7" points="59.797 2.312 66.284 2.312 66.284 3.439 61.008 3.439 61.008 7.527 66.076 7.527 66.076 8.654 61.008 8.654 61.008 13.966 59.797 13.966 59.797 2.312"></polyline>
                <polyline id="Fill-8" points="70.727 3.439 67.303 3.439 67.303 2.312 75.362 2.312 75.362 3.439 71.939 3.439 71.939 13.966 70.727 13.966 70.727 3.439"></polyline>
                <path d="M3.2,29.006 L7.179,29.006 C8.826,29.006 9.355,28.495 9.355,26.251 C9.355,23.826 8.905,23.498 7.394,23.498 L3.2,23.498 L3.2,29.006 Z M1.829,22.22 L7.787,22.22 C10.217,22.22 10.726,23.844 10.726,26.251 C10.726,29.772 9.237,30.283 7.022,30.283 L3.2,30.283 L3.2,35.427 L1.829,35.427 L1.829,22.22 L1.829,22.22 Z" id="Fill-9"></path>
                <polyline id="Fill-10" points="12.704 23.773 19.416 23.773 19.416 24.9 13.915 24.9 13.915 28.828 19.138 28.828 19.138 29.955 13.915 29.955 13.915 34.299 19.379 34.299 19.379 35.427 12.704 35.427 12.704 23.773"></polyline>
                <path d="M22.993,29.617 L26.92,29.617 C28.182,29.617 28.719,28.876 28.719,27.267 C28.719,25.078 28.407,24.9 26.54,24.9 L22.993,24.9 L22.993,29.617 Z M21.783,23.773 L26.904,23.773 C29.1,23.773 29.928,24.482 29.928,27.073 C29.928,29.085 29.481,29.89 28.338,30.163 L28.338,30.195 C29.324,30.454 29.722,31.146 29.722,32.239 L29.722,35.427 L28.511,35.427 L28.511,32.771 C28.511,31.225 28.043,30.742 26.142,30.742 L22.993,30.742 L22.993,35.427 L21.783,35.427 L21.783,23.773 L21.783,23.773 Z" id="Fill-11"></path>
                <polyline id="Fill-12" points="32.472 23.773 38.958 23.773 38.958 24.9 33.683 24.9 33.683 28.989 38.75 28.989 38.75 30.115 33.683 30.115 33.683 35.427 32.472 35.427 32.472 23.773"></polyline>
                <path d="M48.35,27.701 C48.35,25.126 47.986,24.771 45.15,24.771 C42.311,24.771 41.951,25.126 41.951,27.701 L41.951,31.5 C41.951,34.075 42.311,34.428 45.15,34.428 C47.986,34.428 48.35,34.075 48.35,31.5 L48.35,27.701 Z M40.74,27.636 C40.74,24.224 41.864,23.645 45.15,23.645 C48.434,23.645 49.559,24.224 49.559,27.636 L49.559,31.564 C49.559,34.977 48.434,35.555 45.15,35.555 C41.864,35.555 40.74,34.977 40.74,31.564 L40.74,27.636 L40.74,27.636 Z" id="Fill-13"></path>
                <path d="M53.141,29.617 L57.065,29.617 C58.33,29.617 58.864,28.876 58.864,27.267 C58.864,25.078 58.552,24.9 56.684,24.9 L53.141,24.9 L53.141,29.617 Z M51.929,23.773 L57.05,23.773 C59.245,23.773 60.076,24.482 60.076,27.073 C60.076,29.085 59.627,29.89 58.485,30.163 L58.485,30.195 C59.47,30.454 59.869,31.146 59.869,32.239 L59.869,35.427 L58.657,35.427 L58.657,32.771 C58.657,31.225 58.19,30.742 56.288,30.742 L53.141,30.742 L53.141,35.427 L51.929,35.427 L51.929,23.773 L51.929,23.773 Z" id="Fill-14"></path>
                <polyline id="Fill-15" points="62.619 23.773 64.64 23.773 68.429 34.059 68.464 34.059 72.25 23.773 74.274 23.773 74.274 35.427 73.064 35.427 73.064 24.997 73.03 24.997 69.103 35.427 67.791 35.427 63.864 24.997 63.827 24.997 63.827 35.427 62.619 35.427 62.619 23.773"></polyline>
                <path d="M80.813,24.9 L80.639,24.9 L78.41,31.837 L83.043,31.837 L80.813,24.9 Z M83.423,32.965 L78.028,32.965 L77.215,35.427 L75.953,35.427 L79.877,23.773 L81.574,23.773 L85.5,35.427 L84.238,35.427 L83.423,32.965 L83.423,32.965 Z" id="Fill-16"></path>
                <polyline id="Fill-17" points="87.176 23.773 89.097 23.773 94.717 34.204 94.754 34.204 94.754 23.773 95.963 23.773 95.963 35.427 94.043 35.427 88.423 24.997 88.387 24.997 88.387 35.427 87.176 35.427 87.176 23.773"></polyline>
                <path d="M106.634,32.432 C106.634,34.96 105.788,35.555 102.76,35.555 C99.457,35.555 98.332,34.977 98.332,31.564 L98.332,27.636 C98.332,24.224 99.457,23.645 102.76,23.645 C105.528,23.645 106.634,23.982 106.634,26.687 L106.634,27.524 L105.528,27.524 L105.528,26.768 C105.528,24.949 104.886,24.771 102.76,24.771 C99.906,24.771 99.543,25.126 99.543,27.701 L99.543,31.5 C99.543,34.075 99.906,34.428 102.76,34.428 C105.286,34.428 105.528,33.914 105.528,32.32 L105.528,31.548 L106.634,31.548 L106.634,32.432" id="Fill-18"></path>
                <polyline id="Fill-19" points="108.865 23.773 115.576 23.773 115.576 24.9 110.075 24.9 110.075 28.828 115.299 28.828 115.299 29.955 110.075 29.955 110.075 34.299 115.542 34.299 115.542 35.427 108.865 35.427 108.865 23.773"></polyline>
                <polyline id="Fill-20" points="1.829 43.683 4.121 43.683 8.414 55.336 8.453 55.336 12.746 43.683 15.039 43.683 15.039 56.887 13.667 56.887 13.667 45.068 13.627 45.068 9.178 56.887 7.689 56.887 3.239 45.068 3.2 45.068 3.2 56.887 1.829 56.887 1.829 43.683"></polyline>
                <path d="M25.216,49.162 C25.216,46.587 24.854,46.233 22.018,46.233 C19.181,46.233 18.818,46.587 18.818,49.162 L18.818,52.961 C18.818,55.538 19.181,55.889 22.018,55.889 C24.854,55.889 25.216,55.538 25.216,52.961 L25.216,49.162 Z M17.608,49.098 C17.608,45.687 18.731,45.105 22.018,45.105 C25.301,45.105 26.428,45.687 26.428,49.098 L26.428,53.025 C26.428,56.439 25.301,57.017 22.018,57.017 C18.731,57.017 17.608,56.439 17.608,53.025 L17.608,49.098 L17.608,49.098 Z" id="Fill-21"></path>
                <path d="M30.006,55.762 L33.794,55.762 C35.803,55.762 36.217,54.764 36.217,51.063 C36.217,47.231 35.835,46.362 33.794,46.362 L30.006,46.362 L30.006,55.762 Z M28.797,45.236 L33.588,45.236 C37.254,45.236 37.426,47.199 37.426,50.594 C37.426,54.86 37.219,56.887 33.415,56.887 L28.797,56.887 L28.797,45.236 L28.797,45.236 Z" id="Fill-22"></path>
                <polygon id="Fill-23" points="40.057 56.887 41.268 56.887 41.268 45.236 40.057 45.236"></polygon>
                <polyline id="Fill-24" points="44.069 45.236 50.553 45.236 50.553 46.362 45.28 46.362 45.28 50.451 50.347 50.451 50.347 51.577 45.28 51.577 45.28 56.887 44.069 56.887 44.069 45.236"></polyline>
                <polygon id="Fill-25" points="52.769 56.887 53.979 56.887 53.979 45.236 52.769 45.236"></polygon>
                <path d="M64.909,53.894 C64.909,56.421 64.061,57.017 61.036,57.017 C57.731,57.017 56.607,56.439 56.607,53.025 L56.607,49.098 C56.607,45.687 57.731,45.105 61.036,45.105 C63.801,45.105 64.909,45.443 64.909,48.148 L64.909,48.987 L63.801,48.987 L63.801,48.227 C63.801,46.409 63.162,46.233 61.036,46.233 C58.182,46.233 57.818,46.587 57.818,49.162 L57.818,52.961 C57.818,55.538 58.182,55.889 61.036,55.889 C63.56,55.889 63.801,55.376 63.801,53.782 L63.801,53.007 L64.909,53.007 L64.909,53.894" id="Fill-26"></path>
                <path d="M71.135,46.362 L70.963,46.362 L68.731,53.299 L73.366,53.299 L71.135,46.362 Z M73.746,54.425 L68.35,54.425 L67.538,56.887 L66.275,56.887 L70.202,45.236 L71.897,45.236 L75.821,56.887 L74.559,56.887 L73.746,54.425 L73.746,54.425 Z" id="Fill-27"></path>
                <polyline id="Fill-28" points="79.04 46.362 75.615 46.362 75.615 45.236 83.674 45.236 83.674 46.362 80.25 46.362 80.25 56.887 79.04 56.887 79.04 46.362"></polyline>
                <polygon id="Fill-29" points="85.542 56.887 86.752 56.887 86.752 45.236 85.542 45.236"></polygon>
                <path d="M96.991,49.162 C96.991,46.587 96.627,46.233 93.791,46.233 C90.955,46.233 90.592,46.587 90.592,49.162 L90.592,52.961 C90.592,55.538 90.955,55.889 93.791,55.889 C96.627,55.889 96.991,55.538 96.991,52.961 L96.991,49.162 Z M89.381,49.098 C89.381,45.687 90.506,45.105 93.791,45.105 C97.078,45.105 98.202,45.687 98.202,49.098 L98.202,53.025 C98.202,56.439 97.078,57.017 93.791,57.017 C90.506,57.017 89.381,56.439 89.381,53.025 L89.381,49.098 L89.381,49.098 Z" id="Fill-30"></path>
                <polyline id="Fill-31" points="100.573 45.236 102.492 45.236 108.112 55.664 108.146 55.664 108.146 45.236 109.358 45.236 109.358 56.887 107.437 56.887 101.817 46.458 101.783 46.458 101.783 56.887 100.573 56.887 100.573 45.236"></polyline>
                <path d="M111.607,53.236 L112.713,53.236 L112.713,53.91 C112.713,55.65 113.127,55.889 115.48,55.889 C117.831,55.889 118.143,55.777 118.143,53.571 C118.143,52.092 118.143,51.659 115.653,51.464 L114.374,51.367 C112.246,51.207 111.745,50.515 111.745,48.293 C111.745,45.461 112.678,45.105 115.516,45.105 C118.559,45.105 119.198,45.687 119.267,48.389 L118.16,48.389 L118.16,48.132 C118.16,46.603 117.59,46.233 115.516,46.233 C113.145,46.233 112.954,46.572 112.954,48.293 C112.954,49.95 113.267,50.242 115.584,50.384 C118.68,50.578 119.354,50.899 119.354,53.733 C119.354,56.487 118.315,57.017 115.497,57.017 C112.625,57.017 111.607,56.487 111.607,54.136 L111.607,53.236" id="Fill-32"></path>
                <path d="M122.347,55.406 L123.556,55.406 L123.556,57.16 C123.556,58.531 123.125,58.627 122.243,58.627 L122.243,57.982 C122.709,57.982 122.865,57.87 122.865,56.887 L122.347,56.887 L122.347,55.406" id="Fill-33"></path>
                <polygon id="Fill-34" points="132.344 56.887 133.553 56.887 133.553 45.236 132.344 45.236"></polygon>
                <polyline id="Fill-35" points="136.356 45.236 138.276 45.236 143.894 55.664 143.93 55.664 143.93 45.236 145.141 45.236 145.141 56.887 143.22 56.887 137.601 46.458 137.566 46.458 137.566 56.887 136.356 56.887 136.356 45.236"></polyline>
                <path d="M155.812,53.894 C155.812,56.421 154.962,57.017 151.938,57.017 C148.634,57.017 147.51,56.439 147.51,53.025 L147.51,49.098 C147.51,45.687 148.634,45.105 151.938,45.105 C154.706,45.105 155.812,45.443 155.812,48.148 L155.812,48.987 L154.706,48.987 L154.706,48.227 C154.706,46.409 154.064,46.233 151.938,46.233 C149.083,46.233 148.722,46.587 148.722,49.162 L148.722,52.961 C148.722,55.538 149.083,55.889 151.938,55.889 C154.462,55.889 154.706,55.376 154.706,53.782 L154.706,53.007 L155.812,53.007 L155.812,53.894" id="Fill-36"></path>
            </g>
        </g>
    </g>
</svg>